<svg width="53" height="50" viewBox="0 0 53 50" fill="none" xmlns="http://www.w3.org/2000/svg">
<ellipse rx="18.6921" ry="18.5444" transform="matrix(-0.88572 -0.46422 0.474602 -0.880201 27.5734 25)" fill="#5B6DE7"/>
<path d="M29.5064 27.7533L4.78955 42.0634C2.69193 43.2766 0 41.8076 0 39.3619V10.7415C0 8.29967 2.68805 6.8268 4.78955 8.04386L29.5064 22.354C29.9836 22.6258 30.3802 23.0187 30.6561 23.4928C30.9319 23.9669 31.0772 24.5054 31.0772 25.0536C31.0772 25.6019 30.9319 26.1404 30.6561 26.6145C30.3802 27.0886 29.9836 27.4815 29.5064 27.7533V27.7533Z" fill="#3EEC9A"/>
<path d="M27.5684 28.3962C29.4701 28.3962 31.0117 26.8762 31.0117 25.0013C31.0117 23.1264 29.4701 21.6064 27.5684 21.6064C25.6666 21.6064 24.125 23.1264 24.125 25.0013C24.125 26.8762 25.6666 28.3962 27.5684 28.3962Z" fill="white"/>
<mask id="mask0_6409_2316" style="mask-type:alpha" maskUnits="userSpaceOnUse" x="8" y="6" width="39" height="38">
<ellipse rx="18.6921" ry="18.5444" transform="matrix(-0.88572 -0.46422 0.474602 -0.880201 27.5734 25)" fill="#4DD3FE"/>
</mask>
<g mask="url(#mask0_6409_2316)">
<path d="M29.5064 27.7533L4.78955 42.0634C2.69193 43.2766 0 41.8076 0 39.3619V10.7415C0 8.29967 2.68805 6.8268 4.78955 8.04386L29.5064 22.354C29.9836 22.6258 30.3802 23.0187 30.6561 23.4928C30.9319 23.9669 31.0772 24.5054 31.0772 25.0536C31.0772 25.6019 30.9319 26.1404 30.6561 26.6145C30.3802 27.0886 29.9836 27.4815 29.5064 27.7533V27.7533Z" fill="#2DC9FD"/>
<g filter="url(#filter0_d_6409_2316)">
<path d="M27.5684 28.3962C29.4701 28.3962 31.0117 26.8762 31.0117 25.0013C31.0117 23.1264 29.4701 21.6064 27.5684 21.6064C25.6666 21.6064 24.125 23.1264 24.125 25.0013C24.125 26.8762 25.6666 28.3962 27.5684 28.3962Z" fill="white"/>
</g>
</g>
<defs>
<filter id="filter0_d_6409_2316" x="-15.875" y="-18.3936" width="86.8906" height="86.79" filterUnits="userSpaceOnUse" color-interpolation-filters="sRGB">
<feFlood flood-opacity="0" result="BackgroundImageFix"/>
<feColorMatrix in="SourceAlpha" type="matrix" values="0 0 0 0 0 0 0 0 0 0 0 0 0 0 0 0 0 0 127 0" result="hardAlpha"/>
<feOffset/>
<feGaussianBlur stdDeviation="20"/>
<feComposite in2="hardAlpha" operator="out"/>
<feColorMatrix type="matrix" values="0 0 0 0 0 0 0 0 0 0 0 0 0 0 0 0 0 0 0.1 0"/>
<feBlend mode="normal" in2="BackgroundImageFix" result="effect1_dropShadow_6409_2316"/>
<feBlend mode="normal" in="SourceGraphic" in2="effect1_dropShadow_6409_2316" result="shape"/>
</filter>
</defs>
</svg>
